<mxfile host="app.diagrams.net" modified="2023-07-27T13:54:00.217Z" agent="Mozilla/5.0 (Macintosh; Intel Mac OS X 10_15_7) AppleWebKit/537.36 (KHTML, like Gecko) Chrome/114.0.0.0 Safari/537.36 Edg/114.0.1823.51" version="21.6.5" etag="8ns_dZEv9ZTWNHf38_-B" type="github">
  <diagram name="Page-1" id="Vie-viR2AeidqHm6k_YK">
    <mxGraphModel>
      <root>
        <mxCell id="0" />
        <mxCell id="1" parent="0" />
      </root>
    </mxGraphModel>
  </diagram>
</mxfile>
